<svg xmlns="http://www.w3.org/2000/svg" viewBox="0 0 64 64" role="img" aria-label="SUINTEC">
  <path
    fill="#111111"
    d="m32 0 4.2 7.1 7-4.3 1.7 8.1 8.1-1.7-.9 8.2 8.2.9-3.4 7.5 7.1 4.2-5.5 6.1 5.5 6.1-7.1 4.2 3.4 7.5-8.2.9.9 8.2-8.1-1.7-1.7 8.1-7-4.3L32 64l-4.2-7.1-7 4.3-1.7-8.1-8.1 1.7.9-8.2-8.2-.9 3.4-7.5L0 34l5.5-6.1L0 21.8l7.1-4.2-3.4-7.5 8.2-.9-.9-8.2 8.1 1.7 1.7-8.1 7 4.3L32 0Z"
    transform="translate(0 0)"
  />
  <circle cx="32" cy="32" r="22" fill="#ffffff" />
  <path
    fill="#2e7d32"
    d="M31.4 47.5c-1.2 0-2.1-.9-2.1-2.1V33.1c-6.9-.9-12.2-6.1-14.5-14.1-.3-1 .6-1.9 1.6-1.6 7.8 2.1 13.2 6.8 15 13.2 1.8-6.4 7.2-11.1 15-13.2 1-.3 1.9.6 1.6 1.6-2.3 8-7.6 13.2-14.5 14.1v12.3c0 1.2-.9 2.1-2.1 2.1Zm-10.8-25c2.1 3.9 5 6.1 8.7 6.8-1.2-3.2-4.1-5.4-8.7-6.8Zm13 6.8c3.7-.7 6.6-2.9 8.7-6.8-4.6 1.4-7.5 3.6-8.7 6.8Z"
  />
</svg>
